<svg xmlns="http://www.w3.org/2000/svg" fill="none" viewBox="0 0 24 24" xmlns:xlink="http://www.w3.org/1999/xlink"><path fill="#003B95" d="M2 4.222C2 2.995 2.995 2 4.222 2h15.556C21.005 2 22 2.995 22 4.222v15.556A2.222 2.222 0 0 1 19.778 22H2V4.222Z"></path><path fill="#fff" d="M9.32 7.732a.91.91 0 0 1 .629-.23c.688 0 1.377-.006 2.065.002.712.007 1.463.195 1.998.71.427.4.653 1.001.649 1.595.012.49-.121.984-.399 1.38-.148.217-.346.387-.54.557.191.113.39.213.556.365.434.383.678.966.714 1.551.044.602-.093 1.232-.446 1.72-.353.496-.892.82-1.46.974-.357.103-.728.13-1.097.144H9V8.471a.981.981 0 0 1 .32-.74Zm1.464 1.446c-.098.134-.113.309-.114.471v1.49h1.287c.203 0 .413-.044.585-.162.248-.166.385-.468.419-.765.032-.306-.013-.64-.206-.884-.181-.236-.478-.343-.762-.344a54.164 54.164 0 0 0-.76 0c-.165 0-.344.053-.45.194Zm.121 3.43c-.182.105-.235.34-.234.542-.003.605-.001 1.21-.002 1.815h1.514c.358-.002.73-.168.922-.495.2-.342.226-.775.122-1.154a1.04 1.04 0 0 0-.635-.703c-.326-.127-.678-.068-1.017-.08-.223.014-.466-.05-.67.075Z"></path><circle cx="17" cy="15.5" r="1" fill="#fff"></circle></svg>