<svg xmlns="http://www.w3.org/2000/svg" height="48" width="48" version="1.1"><path d="M0 0 C0.69931641 -0.020625 1.39863281 -0.04125 2.11914062 -0.0625 C9.10021618 -0.11474378 14.23787733 2.42729073 19.1875 7.25 C24.48814561 13.57000054 25.09718189 20.47194077 24.6640625 28.4296875 C23.7377162 35.8556439 20.87976325 40.17775988 15.0625 44.75 C10.27695559 48.10174317 6.1002426 48.45847512 0.375 48.5 C-0.32431641 48.520625 -1.02363281 48.54125 -1.74414062 48.5625 C-8.72521618 48.61474378 -13.86287733 46.07270927 -18.8125 41.25 C-24.11314561 34.92999946 -24.72218189 28.02805923 -24.2890625 20.0703125 C-23.3627162 12.6443561 -20.50476325 8.32224012 -14.6875 3.75 C-9.90195559 0.39825683 -5.7252426 0.04152488 0 0 Z " fill="#0553A2" transform="translate(23.8125,-0.25)"/><path d="M0 0 C1.65 0 3.3 0 5 0 C6.97145465 2.21414131 8.52046715 4.23163245 10.125 6.6875 C10.55425781 7.31333984 10.98351563 7.93917969 11.42578125 8.58398438 C13.74689592 11.99423746 15.87393629 15.45656048 18 19 C18.33 12.73 18.66 6.46 19 0 C20.65 0 22.3 0 24 0 C24 9.9 24 19.8 24 30 C19 30 19 30 17.23901367 28.34765625 C16.72056885 27.59355469 16.20212402 26.83945312 15.66796875 26.0625 C15.09755859 25.25039063 14.52714844 24.43828125 13.93945312 23.6015625 C13.36130859 22.74304688 12.78316406 21.88453125 12.1875 21 C11.59001953 20.14148438 10.99253906 19.28296875 10.37695312 18.3984375 C8.90299864 16.27594304 7.44951708 14.139258 6 12 C5.67 17.94 5.34 23.88 5 30 C3.35 30 1.7 30 0 30 C0 20.1 0 10.2 0 0 Z " fill="#F3F7FA" transform="translate(12,9)"/></svg>